<svg width="32" height="32" viewBox="0 0 32 32" fill="none" xmlns="http://www.w3.org/2000/svg">
<path d="M16.051 21.3906L31.9999 5.44164V3.18646H29.7448L16.051 16.8802L10.3317 11.1609H8.07651V13.4161L16.051 21.3906Z" fill="#2B2D33"/>
<path d="M28.3955 12.2056C28.7745 13.4164 28.9712 14.6769 28.9792 15.9456C28.9883 18.8768 28.004 21.7247 26.1869 24.0247C24.3699 26.3248 21.8272 27.9414 18.9734 28.611C16.1197 29.2806 13.1233 28.9636 10.4728 27.7117C7.82236 26.4599 5.67418 24.347 4.37859 21.7176C3.08299 19.0883 2.7164 16.0975 3.33859 13.2331C3.96079 10.3687 5.53507 7.79952 7.80472 5.94458C10.0744 4.08964 12.9055 3.05835 15.8365 3.01885C18.7674 2.97936 21.6253 3.93401 23.9441 5.72712L26.0893 3.58199C23.0602 1.12101 19.2362 -0.148011 15.3368 0.0137616C11.4374 0.175535 7.73161 1.75695 4.91685 4.46037C2.10209 7.16379 0.372476 10.8028 0.0535422 14.6925C-0.265391 18.5821 0.848345 22.4543 3.18514 25.5801C5.52193 28.7059 8.92064 30.8699 12.7416 31.6647C16.5625 32.4595 20.5422 31.8303 23.9317 29.8956C27.3211 27.9609 29.8865 24.8541 31.1452 21.1599C32.4038 17.4656 32.2687 13.4388 30.7655 9.83717L28.3955 12.2056Z" fill="#2B2D33"/>
</svg>
