<svg width="196" height="54" viewBox="0 0 196 54" fill="none" xmlns="http://www.w3.org/2000/svg">
<rect width="196" height="54" rx="10" fill="#FEE600"/>
<path d="M29.2168 26.7246C29.2168 24.5859 29.791 22.9131 30.9395 21.7061C32.0879 20.4932 33.5703 19.8867 35.3867 19.8867C36.5762 19.8867 37.6484 20.1709 38.6035 20.7393C39.5586 21.3076 40.2852 22.1016 40.7832 23.1211C41.2871 24.1348 41.5391 25.2861 41.5391 26.5752C41.5391 27.8818 41.2754 29.0508 40.748 30.082C40.2207 31.1133 39.4736 31.8955 38.5068 32.4287C37.54 32.9561 36.4971 33.2197 35.3779 33.2197C34.165 33.2197 33.0811 32.9268 32.126 32.3408C31.1709 31.7549 30.4473 30.9551 29.9551 29.9414C29.4629 28.9277 29.2168 27.8555 29.2168 26.7246ZM30.9746 26.751C30.9746 28.3037 31.3906 29.5283 32.2227 30.4248C33.0605 31.3154 34.1094 31.7607 35.3691 31.7607C36.6523 31.7607 37.707 31.3096 38.5332 30.4072C39.3652 29.5049 39.7812 28.2246 39.7812 26.5664C39.7812 25.5176 39.6025 24.6035 39.2451 23.8242C38.8936 23.0391 38.375 22.4326 37.6895 22.0049C37.0098 21.5713 36.2451 21.3545 35.3955 21.3545C34.1885 21.3545 33.1484 21.7705 32.2754 22.6025C31.4082 23.4287 30.9746 24.8115 30.9746 26.751ZM48.9746 20.1152H50.5566V24.5713C50.8848 24.1963 51.2451 23.918 51.6377 23.7363C52.0303 23.5488 52.4521 23.4551 52.9033 23.4551C54.0107 23.4551 54.8867 23.918 55.5312 24.8438C56.1816 25.7637 56.5068 26.9238 56.5068 28.3242C56.5068 29.7832 56.1582 30.9639 55.4609 31.8662C54.7637 32.7627 53.8965 33.2109 52.8594 33.2109C52.5195 33.2109 52.1738 33.1582 51.8223 33.0527C51.4707 32.9473 51.0488 32.6602 50.5566 32.1914V36.5771H48.9746V32.1914C48.6582 32.5312 48.3066 32.7861 47.9199 32.9561C47.5391 33.126 47.126 33.2109 46.6807 33.2109C45.7021 33.2109 44.8467 32.7832 44.1143 31.9277C43.3818 31.0664 43.0156 29.8359 43.0156 28.2363C43.0156 26.8828 43.3467 25.749 44.0088 24.835C44.6709 23.915 45.5615 23.4551 46.6807 23.4551C47.1494 23.4551 47.5742 23.5488 47.9551 23.7363C48.3359 23.918 48.6758 24.1963 48.9746 24.5713V20.1152ZM50.5479 28.3682C50.5479 29.7744 50.7412 30.7207 51.1279 31.207C51.5146 31.6875 51.998 31.9277 52.5781 31.9277C53.2227 31.9277 53.7705 31.6318 54.2217 31.04C54.6787 30.4424 54.9072 29.5166 54.9072 28.2627C54.9072 27.0791 54.6963 26.1973 54.2744 25.6172C53.8584 25.0371 53.3223 24.7471 52.666 24.7471C51.9629 24.7471 51.4326 25.0488 51.0752 25.6523C50.7236 26.2559 50.5479 27.1611 50.5479 28.3682ZM44.624 28.1924C44.624 29.5107 44.8438 30.46 45.2832 31.04C45.7285 31.6201 46.2793 31.9102 46.9355 31.9102C47.6211 31.9102 48.1338 31.623 48.4736 31.0488C48.8135 30.4688 48.9834 29.6016 48.9834 28.4473C48.9834 27.2168 48.8047 26.2939 48.4473 25.6787C48.0898 25.0635 47.5508 24.7559 46.8301 24.7559C46.1797 24.7559 45.6494 25.0576 45.2393 25.6611C44.8291 26.2588 44.624 27.1025 44.624 28.1924ZM57.7725 28.333C57.7725 26.6045 58.2529 25.3242 59.2139 24.4922C60.0166 23.8008 60.9951 23.4551 62.1494 23.4551C63.4326 23.4551 64.4814 23.877 65.2959 24.7207C66.1104 25.5586 66.5176 26.7188 66.5176 28.2012C66.5176 29.4023 66.3359 30.3486 65.9727 31.04C65.6152 31.7256 65.0908 32.2588 64.3994 32.6396C63.7139 33.0205 62.9639 33.2109 62.1494 33.2109C60.8428 33.2109 59.7852 32.792 58.9766 31.9541C58.1738 31.1162 57.7725 29.9092 57.7725 28.333ZM59.3984 28.333C59.3984 29.5283 59.6592 30.4248 60.1807 31.0225C60.7021 31.6143 61.3584 31.9102 62.1494 31.9102C62.9346 31.9102 63.5879 31.6113 64.1094 31.0137C64.6309 30.416 64.8916 29.5049 64.8916 28.2803C64.8916 27.126 64.6279 26.2529 64.1006 25.6611C63.5791 25.0635 62.9287 24.7646 62.1494 24.7646C61.3584 24.7646 60.7021 25.0605 60.1807 25.6523C59.6592 26.2441 59.3984 27.1377 59.3984 28.333ZM68.3809 36.5771V23.666H69.8223V24.8789C70.1621 24.4043 70.5459 24.0498 70.9736 23.8154C71.4014 23.5752 71.9199 23.4551 72.5293 23.4551C73.3262 23.4551 74.0293 23.6602 74.6387 24.0703C75.248 24.4805 75.708 25.0605 76.0186 25.8105C76.3291 26.5547 76.4844 27.3721 76.4844 28.2627C76.4844 29.2178 76.3115 30.0791 75.9658 30.8467C75.626 31.6084 75.1279 32.1943 74.4717 32.6045C73.8213 33.0088 73.1357 33.2109 72.415 33.2109C71.8877 33.2109 71.4131 33.0996 70.9912 32.877C70.5752 32.6543 70.2324 32.373 69.9629 32.0332V36.5771H68.3809ZM69.8135 28.3857C69.8135 29.5869 70.0566 30.4746 70.543 31.0488C71.0293 31.623 71.6182 31.9102 72.3096 31.9102C73.0127 31.9102 73.6133 31.6143 74.1113 31.0225C74.6152 30.4248 74.8672 29.502 74.8672 28.2539C74.8672 27.0645 74.6211 26.1738 74.1289 25.582C73.6426 24.9902 73.0596 24.6943 72.3799 24.6943C71.7061 24.6943 71.1084 25.0107 70.5869 25.6436C70.0713 26.2705 69.8135 27.1846 69.8135 28.3857ZM78.4443 23.666H80.9053L83.3574 31.1367L86.082 23.666H88.3584V33H86.7764V25.4854L84.0166 33H82.6016L79.9912 25.125V33H78.4443V23.666ZM90.7754 23.666H92.3574V30.7852L96.7432 23.666H98.4482V33H96.8662V25.9248L92.4805 33H90.7754V23.666ZM99.9775 23.666H107.562V24.9756H104.557V33H102.983V24.9756H99.9775V23.666ZM109.048 23.666H110.63V27.3135H112.634C113.94 27.3135 114.945 27.5684 115.648 28.0781C116.357 28.582 116.712 29.2793 116.712 30.1699C116.712 30.9492 116.416 31.6172 115.824 32.1738C115.238 32.7246 114.298 33 113.003 33H109.048V23.666ZM110.63 31.6992H112.291C113.293 31.6992 114.008 31.5762 114.436 31.3301C114.863 31.084 115.077 30.7002 115.077 30.1787C115.077 29.7744 114.919 29.4141 114.603 29.0977C114.286 28.7812 113.586 28.623 112.502 28.623H110.63V31.6992ZM123.462 23.666H125.044V27.7002C125.548 27.7002 125.899 27.6035 126.099 27.4102C126.304 27.2168 126.603 26.6543 126.995 25.7227C127.306 24.9844 127.558 24.498 127.751 24.2637C127.944 24.0293 128.167 23.8711 128.419 23.7891C128.671 23.707 129.075 23.666 129.632 23.666H129.948V24.9756L129.509 24.9668C129.093 24.9668 128.826 25.0283 128.709 25.1514C128.586 25.2803 128.398 25.6641 128.146 26.3027C127.906 26.9121 127.687 27.334 127.487 27.5684C127.288 27.8027 126.98 28.0166 126.564 28.21C127.244 28.3916 127.912 29.0244 128.568 30.1084L130.3 33H128.56L126.872 30.1084C126.526 29.5283 126.225 29.1475 125.967 28.9658C125.709 28.7783 125.401 28.6846 125.044 28.6846V33H123.462V23.666ZM137.841 31.8486C137.255 32.3467 136.689 32.6982 136.145 32.9033C135.605 33.1084 135.025 33.2109 134.404 33.2109C133.379 33.2109 132.591 32.9619 132.04 32.4639C131.489 31.96 131.214 31.3184 131.214 30.5391C131.214 30.082 131.316 29.666 131.521 29.291C131.732 28.9102 132.005 28.6055 132.339 28.377C132.679 28.1484 133.06 27.9756 133.481 27.8584C133.792 27.7764 134.261 27.6973 134.888 27.6211C136.165 27.4688 137.105 27.2871 137.709 27.0762C137.715 26.8594 137.718 26.7217 137.718 26.6631C137.718 26.0186 137.568 25.5645 137.27 25.3008C136.865 24.9434 136.265 24.7646 135.468 24.7646C134.724 24.7646 134.173 24.8965 133.815 25.1602C133.464 25.418 133.203 25.8779 133.033 26.54L131.486 26.3291C131.627 25.667 131.858 25.1338 132.181 24.7295C132.503 24.3193 132.969 24.0059 133.578 23.7891C134.188 23.5664 134.894 23.4551 135.696 23.4551C136.493 23.4551 137.141 23.5488 137.639 23.7363C138.137 23.9238 138.503 24.1611 138.737 24.4482C138.972 24.7295 139.136 25.0869 139.229 25.5205C139.282 25.79 139.309 26.2764 139.309 26.9795V29.0889C139.309 30.5596 139.341 31.4912 139.405 31.8838C139.476 32.2705 139.61 32.6426 139.81 33H138.157C137.993 32.6719 137.888 32.2881 137.841 31.8486ZM137.709 28.3154C137.135 28.5498 136.273 28.749 135.125 28.9131C134.475 29.0068 134.015 29.1123 133.745 29.2295C133.476 29.3467 133.268 29.5195 133.121 29.748C132.975 29.9707 132.901 30.2197 132.901 30.4951C132.901 30.917 133.06 31.2686 133.376 31.5498C133.698 31.8311 134.167 31.9717 134.782 31.9717C135.392 31.9717 135.934 31.8398 136.408 31.5762C136.883 31.3066 137.231 30.9404 137.454 30.4775C137.624 30.1201 137.709 29.5928 137.709 28.8955V28.3154ZM141.77 36.5771V23.666H143.211V24.8789C143.551 24.4043 143.935 24.0498 144.362 23.8154C144.79 23.5752 145.309 23.4551 145.918 23.4551C146.715 23.4551 147.418 23.6602 148.027 24.0703C148.637 24.4805 149.097 25.0605 149.407 25.8105C149.718 26.5547 149.873 27.3721 149.873 28.2627C149.873 29.2178 149.7 30.0791 149.354 30.8467C149.015 31.6084 148.517 32.1943 147.86 32.6045C147.21 33.0088 146.524 33.2109 145.804 33.2109C145.276 33.2109 144.802 33.0996 144.38 32.877C143.964 32.6543 143.621 32.373 143.352 32.0332V36.5771H141.77ZM143.202 28.3857C143.202 29.5869 143.445 30.4746 143.932 31.0488C144.418 31.623 145.007 31.9102 145.698 31.9102C146.401 31.9102 147.002 31.6143 147.5 31.0225C148.004 30.4248 148.256 29.502 148.256 28.2539C148.256 27.0645 148.01 26.1738 147.518 25.582C147.031 24.9902 146.448 24.6943 145.769 24.6943C145.095 24.6943 144.497 25.0107 143.976 25.6436C143.46 26.2705 143.202 27.1846 143.202 28.3857ZM150.532 23.666H158.117V24.9756H155.111V33H153.538V24.9756H150.532V23.666ZM159.77 36.5947L159.594 35.1094C159.939 35.2031 160.241 35.25 160.499 35.25C160.851 35.25 161.132 35.1914 161.343 35.0742C161.554 34.957 161.727 34.793 161.861 34.582C161.961 34.4238 162.122 34.0312 162.345 33.4043C162.374 33.3164 162.421 33.1875 162.485 33.0176L158.943 23.666H160.648L162.591 29.0713C162.843 29.7568 163.068 30.4775 163.268 31.2334C163.449 30.5068 163.666 29.7979 163.918 29.1064L165.913 23.666H167.495L163.944 33.1582C163.563 34.1836 163.268 34.8896 163.057 35.2764C162.775 35.7979 162.453 36.1787 162.09 36.4189C161.727 36.665 161.293 36.7881 160.789 36.7881C160.484 36.7881 160.145 36.7236 159.77 36.5947Z" fill="#2B2D33"/>
</svg>
