<svg width="186" height="54" viewBox="0 0 186 54" fill="none" xmlns="http://www.w3.org/2000/svg">
<rect width="186" height="54" rx="10" fill="#FEE600"/>
<path d="M29.6484 20.1152H39.7822V33H38.0684V21.6357H31.3535V33H29.6484V20.1152ZM41.7773 28.333C41.7773 26.6045 42.2578 25.3242 43.2188 24.4922C44.0215 23.8008 45 23.4551 46.1543 23.4551C47.4375 23.4551 48.4863 23.877 49.3008 24.7207C50.1152 25.5586 50.5225 26.7188 50.5225 28.2012C50.5225 29.4023 50.3408 30.3486 49.9775 31.04C49.6201 31.7256 49.0957 32.2588 48.4043 32.6396C47.7188 33.0205 46.9688 33.2109 46.1543 33.2109C44.8477 33.2109 43.79 32.792 42.9814 31.9541C42.1787 31.1162 41.7773 29.9092 41.7773 28.333ZM43.4033 28.333C43.4033 29.5283 43.6641 30.4248 44.1855 31.0225C44.707 31.6143 45.3633 31.9102 46.1543 31.9102C46.9395 31.9102 47.5928 31.6113 48.1143 31.0137C48.6357 30.416 48.8965 29.5049 48.8965 28.2803C48.8965 27.126 48.6328 26.2529 48.1055 25.6611C47.584 25.0635 46.9336 24.7646 46.1543 24.7646C45.3633 24.7646 44.707 25.0605 44.1855 25.6523C43.6641 26.2441 43.4033 27.1377 43.4033 28.333ZM52.7549 23.666H60.1025V33H58.5293V24.9756H54.3369V29.625C54.3369 30.709 54.3018 31.4238 54.2314 31.7695C54.1611 32.1152 53.9678 32.417 53.6514 32.6748C53.335 32.9326 52.8779 33.0615 52.2803 33.0615C51.9111 33.0615 51.4863 33.0381 51.0059 32.9912V31.6729H51.7002C52.0283 31.6729 52.2627 31.6406 52.4033 31.5762C52.5439 31.5059 52.6377 31.3975 52.6846 31.251C52.7314 31.1045 52.7549 30.627 52.7549 29.8184V23.666ZM62.4229 36.5947L62.2471 35.1094C62.5928 35.2031 62.8945 35.25 63.1523 35.25C63.5039 35.25 63.7852 35.1914 63.9961 35.0742C64.207 34.957 64.3799 34.793 64.5146 34.582C64.6143 34.4238 64.7754 34.0312 64.998 33.4043C65.0273 33.3164 65.0742 33.1875 65.1387 33.0176L61.5967 23.666H63.3018L65.2441 29.0713C65.4961 29.7568 65.7217 30.4775 65.9209 31.2334C66.1025 30.5068 66.3193 29.7979 66.5713 29.1064L68.5664 23.666H70.1484L66.5977 33.1582C66.2168 34.1836 65.9209 34.8896 65.71 35.2764C65.4287 35.7979 65.1064 36.1787 64.7432 36.4189C64.3799 36.665 63.9463 36.7881 63.4424 36.7881C63.1377 36.7881 62.7979 36.7236 62.4229 36.5947ZM70.9131 23.666H72.4951V25.4326C72.4951 26.1943 72.5391 26.748 72.627 27.0938C72.7207 27.4336 72.9404 27.7324 73.2861 27.9902C73.6318 28.2422 74.0654 28.3682 74.5869 28.3682C75.1846 28.3682 75.958 28.21 76.9072 27.8936V23.666H78.4893V33H76.9072V29.2383C75.9346 29.543 75.0264 29.6953 74.1826 29.6953C73.4736 29.6953 72.8467 29.5166 72.3018 29.1592C71.7627 28.7959 71.3965 28.3535 71.2031 27.832C71.0098 27.3105 70.9131 26.7363 70.9131 26.1094V23.666ZM80.8799 23.666H82.4619V30.7852L86.8477 23.666H88.5527V33H86.9707V25.9248L82.585 33H80.8799V23.666ZM90.082 23.666H97.667V24.9756H94.6611V33H93.0879V24.9756H90.082V23.666ZM99.1523 23.666H100.734V27.3135H102.738C104.045 27.3135 105.05 27.5684 105.753 28.0781C106.462 28.582 106.816 29.2793 106.816 30.1699C106.816 30.9492 106.521 31.6172 105.929 32.1738C105.343 32.7246 104.402 33 103.107 33H99.1523V23.666ZM100.734 31.6992H102.396C103.397 31.6992 104.112 31.5762 104.54 31.3301C104.968 31.084 105.182 30.7002 105.182 30.1787C105.182 29.7744 105.023 29.4141 104.707 29.0977C104.391 28.7812 103.69 28.623 102.606 28.623H100.734V31.6992ZM113.566 23.666H115.148V27.7002C115.652 27.7002 116.004 27.6035 116.203 27.4102C116.408 27.2168 116.707 26.6543 117.1 25.7227C117.41 24.9844 117.662 24.498 117.855 24.2637C118.049 24.0293 118.271 23.8711 118.523 23.7891C118.775 23.707 119.18 23.666 119.736 23.666H120.053V24.9756L119.613 24.9668C119.197 24.9668 118.931 25.0283 118.813 25.1514C118.69 25.2803 118.503 25.6641 118.251 26.3027C118.011 26.9121 117.791 27.334 117.592 27.5684C117.393 27.8027 117.085 28.0166 116.669 28.21C117.349 28.3916 118.017 29.0244 118.673 30.1084L120.404 33H118.664L116.977 30.1084C116.631 29.5283 116.329 29.1475 116.071 28.9658C115.813 28.7783 115.506 28.6846 115.148 28.6846V33H113.566V23.666ZM127.945 31.8486C127.359 32.3467 126.794 32.6982 126.249 32.9033C125.71 33.1084 125.13 33.2109 124.509 33.2109C123.483 33.2109 122.695 32.9619 122.145 32.4639C121.594 31.96 121.318 31.3184 121.318 30.5391C121.318 30.082 121.421 29.666 121.626 29.291C121.837 28.9102 122.109 28.6055 122.443 28.377C122.783 28.1484 123.164 27.9756 123.586 27.8584C123.896 27.7764 124.365 27.6973 124.992 27.6211C126.27 27.4688 127.21 27.2871 127.813 27.0762C127.819 26.8594 127.822 26.7217 127.822 26.6631C127.822 26.0186 127.673 25.5645 127.374 25.3008C126.97 24.9434 126.369 24.7646 125.572 24.7646C124.828 24.7646 124.277 24.8965 123.92 25.1602C123.568 25.418 123.308 25.8779 123.138 26.54L121.591 26.3291C121.731 25.667 121.963 25.1338 122.285 24.7295C122.607 24.3193 123.073 24.0059 123.683 23.7891C124.292 23.5664 124.998 23.4551 125.801 23.4551C126.598 23.4551 127.245 23.5488 127.743 23.7363C128.241 23.9238 128.607 24.1611 128.842 24.4482C129.076 24.7295 129.24 25.0869 129.334 25.5205C129.387 25.79 129.413 26.2764 129.413 26.9795V29.0889C129.413 30.5596 129.445 31.4912 129.51 31.8838C129.58 32.2705 129.715 32.6426 129.914 33H128.262C128.098 32.6719 127.992 32.2881 127.945 31.8486ZM127.813 28.3154C127.239 28.5498 126.378 28.749 125.229 28.9131C124.579 29.0068 124.119 29.1123 123.85 29.2295C123.58 29.3467 123.372 29.5195 123.226 29.748C123.079 29.9707 123.006 30.2197 123.006 30.4951C123.006 30.917 123.164 31.2686 123.48 31.5498C123.803 31.8311 124.271 31.9717 124.887 31.9717C125.496 31.9717 126.038 31.8398 126.513 31.5762C126.987 31.3066 127.336 30.9404 127.559 30.4775C127.729 30.1201 127.813 29.5928 127.813 28.8955V28.3154ZM131.874 36.5771V23.666H133.315V24.8789C133.655 24.4043 134.039 24.0498 134.467 23.8154C134.895 23.5752 135.413 23.4551 136.022 23.4551C136.819 23.4551 137.522 23.6602 138.132 24.0703C138.741 24.4805 139.201 25.0605 139.512 25.8105C139.822 26.5547 139.978 27.3721 139.978 28.2627C139.978 29.2178 139.805 30.0791 139.459 30.8467C139.119 31.6084 138.621 32.1943 137.965 32.6045C137.314 33.0088 136.629 33.2109 135.908 33.2109C135.381 33.2109 134.906 33.0996 134.484 32.877C134.068 32.6543 133.726 32.373 133.456 32.0332V36.5771H131.874ZM133.307 28.3857C133.307 29.5869 133.55 30.4746 134.036 31.0488C134.522 31.623 135.111 31.9102 135.803 31.9102C136.506 31.9102 137.106 31.6143 137.604 31.0225C138.108 30.4248 138.36 29.502 138.36 28.2539C138.36 27.0645 138.114 26.1738 137.622 25.582C137.136 24.9902 136.553 24.6943 135.873 24.6943C135.199 24.6943 134.602 25.0107 134.08 25.6436C133.564 26.2705 133.307 27.1846 133.307 28.3857ZM140.637 23.666H148.222V24.9756H145.216V33H143.643V24.9756H140.637V23.666ZM149.874 36.5947L149.698 35.1094C150.044 35.2031 150.346 35.25 150.604 35.25C150.955 35.25 151.236 35.1914 151.447 35.0742C151.658 34.957 151.831 34.793 151.966 34.582C152.065 34.4238 152.227 34.0312 152.449 33.4043C152.479 33.3164 152.525 33.1875 152.59 33.0176L149.048 23.666H150.753L152.695 29.0713C152.947 29.7568 153.173 30.4775 153.372 31.2334C153.554 30.5068 153.771 29.7979 154.022 29.1064L156.018 23.666H157.6L154.049 33.1582C153.668 34.1836 153.372 34.8896 153.161 35.2764C152.88 35.7979 152.558 36.1787 152.194 36.4189C151.831 36.665 151.397 36.7881 150.894 36.7881C150.589 36.7881 150.249 36.7236 149.874 36.5947Z" fill="#2B2D33"/>
</svg>
