<svg width="48" height="48" viewBox="0 0 48 48" fill="none" xmlns="http://www.w3.org/2000/svg">
<path d="M16 0H32C36.2397 0.012242 40.3023 1.70188 43.3002 4.69982C46.2981 7.69775 47.9878 11.7603 48 16V32C47.9878 36.2397 46.2981 40.3023 43.3002 43.3002C40.3023 46.2981 36.2397 47.9878 32 48H16C11.7603 47.9878 7.69775 46.2981 4.69982 43.3002C1.70188 40.3023 0.012242 36.2397 0 32L0 16C0.012242 11.7603 1.70188 7.69775 4.69982 4.69982C7.69775 1.70188 11.7603 0.012242 16 0V0Z" fill="#FEE600"/>
<path d="M11.2 32.0257L11.1744 16H36.8V15.9744C36.8 15.1325 36.4656 14.3251 35.8702 13.7298C35.2749 13.1345 34.4675 12.8 33.6256 12.8H11.1744C10.3325 12.8 9.52508 13.1345 8.92976 13.7298C8.33444 14.3251 8 15.1325 8 15.9744V32.0257C8 32.8676 8.33444 33.675 8.92976 34.2703C9.52508 34.8656 10.3325 35.2 11.1744 35.2H33.6256C34.4675 35.2 35.2749 34.8656 35.8702 34.2703C36.4656 33.675 36.8 32.8676 36.8 32.0257V32H33.6256L11.2 32.0257Z" fill="#2B2D33"/>
<path d="M33.6 30.4H35.4096L41.8096 24L35.4096 17.6H33.6V19.4096L36.5904 22.4H22.4V25.6H36.5904L33.6 28.5904V30.4Z" fill="#2B2D33"/>
</svg>
