<svg width="48" height="48" viewBox="0 0 48 48" fill="none" xmlns="http://www.w3.org/2000/svg">
<path d="M16 0H32C36.2397 0.012242 40.3023 1.70188 43.3002 4.69982C46.2981 7.69775 47.9878 11.7603 48 16V32C47.9878 36.2397 46.2981 40.3023 43.3002 43.3002C40.3023 46.2981 36.2397 47.9878 32 48H16C11.7603 47.9878 7.69775 46.2981 4.69982 43.3002C1.70188 40.3023 0.012242 36.2397 0 32L0 16C0.012242 11.7603 1.70188 7.69775 4.69982 4.69982C7.69775 1.70188 11.7603 0.012242 16 0V0Z" fill="#FEE600"/>
<path d="M33.6 25.6H30.4V28.8H33.6V25.6Z" fill="#2B2D33"/>
<path d="M12.8 12.8H40V9.59998H12.8C11.612 9.60363 10.4677 10.0488 9.58953 10.8489C8.71134 11.649 8.16192 12.747 8.048 13.9296L8 13.8752V35.2C8 36.0487 8.33714 36.8626 8.93726 37.4627C9.53737 38.0628 10.3513 38.4 11.2 38.4H36.8C37.6487 38.4 38.4626 38.0628 39.0627 37.4627C39.6629 36.8626 40 36.0487 40 35.2V16H12.8C12.3757 16 11.9687 15.8314 11.6686 15.5313C11.3686 15.2313 11.2 14.8243 11.2 14.4C11.2 13.9756 11.3686 13.5687 11.6686 13.2686C11.9687 12.9685 12.3757 12.8 12.8 12.8ZM12.8 19.2H36.8V35.2H11.2V18.904C11.7122 19.0946 12.2535 19.1948 12.8 19.2Z" fill="#2B2D33"/>
</svg>
