<svg width="26" height="32" viewBox="0 0 26 32" fill="none" xmlns="http://www.w3.org/2000/svg">
<path d="M4.0625 3.2H26V0H4.0625C2.98506 0 1.95175 0.421427 1.18988 1.17157C0.428012 1.92172 0 2.93913 0 4V32H22.75C23.612 32 24.4386 31.6629 25.0481 31.0627C25.6576 30.4626 26 29.6487 26 28.8V4.8H4.0625C3.84701 4.8 3.64035 4.71571 3.48798 4.56569C3.3356 4.41566 3.25 4.21217 3.25 4C3.25 3.78783 3.3356 3.58434 3.48798 3.43431C3.64035 3.28429 3.84701 3.2 4.0625 3.2ZM4.0625 8H22.75V28.8H3.25V7.9168C3.51731 7.97134 3.78952 7.99922 4.0625 8Z" fill="#2B2D33"/>
<path d="M9.73375 24H10.7949L13 25.6L15.2116 24H16.2663C16.691 24 17.1117 23.9176 17.5041 23.7575C17.8966 23.5974 18.2531 23.3627 18.5534 23.0669C18.8537 22.771 19.0919 22.4198 19.2543 22.0334C19.4167 21.6469 19.5002 21.2327 19.5 20.8144V11.2H6.5V20.816C6.5 21.6604 6.8407 22.4703 7.44714 23.0674C8.05359 23.6645 8.87611 24 9.73375 24ZM9.75 14.4H16.25L16.2614 20.8H10.9915L9.75 20.8144V14.4Z" fill="#2B2D33"/>
</svg>
