<svg width="29" height="32" viewBox="0 0 29 32" fill="none" xmlns="http://www.w3.org/2000/svg">
<path d="M8.05556 3.2V9.6H3.22222V3.2H8.05556ZM0 3.2V9.6C0 10.4487 0.339483 11.2626 0.943767 11.8627C1.54805 12.4629 2.36764 12.8 3.22222 12.8H8.05556C8.91014 12.8 9.72973 12.4629 10.334 11.8627C10.9383 11.2626 11.2778 10.4487 11.2778 9.6V3.2C11.2778 2.35131 10.9383 1.53737 10.334 0.937258C9.72973 0.337142 8.91014 0 8.05556 0H3.22222C2.36764 0 1.54805 0.337142 0.943767 0.937258C0.339483 1.53737 0 2.35131 0 3.2Z" fill="#2B2D33"/>
<path d="M25.7778 22.4V28.8H20.9444V22.4H25.7778ZM17.7222 22.4V28.8C17.7222 29.6487 18.0617 30.4626 18.666 31.0627C19.2703 31.6629 20.0899 32 20.9444 32H25.7778C26.6324 32 27.452 31.6629 28.0562 31.0627C28.6605 30.4626 29 29.6487 29 28.8V22.4C29 21.5513 28.6605 20.7374 28.0562 20.1373C27.452 19.5371 26.6324 19.2 25.7778 19.2H20.9444C20.0899 19.2 19.2703 19.5371 18.666 20.1373C18.0617 20.7374 17.7222 21.5513 17.7222 22.4Z" fill="#2B2D33"/>
<path d="M29 1.6H26.7219L0 28.1376V30.4H2.27811L29 3.8624V1.6Z" fill="#2B2D33"/>
</svg>
