<svg width="32" height="30" viewBox="0 0 32 30" fill="none" xmlns="http://www.w3.org/2000/svg">
<path d="M32 12.6032C32 12.1918 31.9178 11.7845 31.7582 11.4045C31.5985 11.0245 31.3646 10.6793 31.0696 10.3886C30.7747 10.0979 30.4246 9.86753 30.0393 9.71054C29.6541 9.55355 29.2412 9.47306 28.8245 9.47368H27.0167L19.2018 0H0.00462129V3.15789H17.8772L22.9629 9.47368H13.2827L10.2031 12.6126L17.922 19.7605L17.0662 20.9053C14.6985 19.77 7.40995 16.0832 4.77993 13.4842C4.24771 12.9617 3.83247 12.3347 3.56104 11.6439C3.28961 10.9531 3.16803 10.2138 3.20416 9.47368H0.00462129C-0.0339931 10.6301 0.169722 11.7819 0.603009 12.857C1.0363 13.9321 1.68982 14.9073 2.52266 15.7216C5.17347 18.3379 12.654 22.2205 15.8007 23.7632C16.4518 24.0837 17.198 24.1623 17.903 23.9846C18.608 23.8069 19.2246 23.3847 19.6402 22.7953L20.9392 20.8468C21.1717 20.1875 21.1813 19.4715 20.9667 18.8062C20.7522 18.1409 20.3249 17.5622 19.749 17.1568L14.8105 12.6316H28.8005V15.7895H20.768L21.7023 16.5537C22.3704 17.2032 22.8224 18.0381 22.9981 18.9474H28.8005V26.8421H8.00347V22.3263L4.80393 20.5263V26.8421C4.80393 27.6796 5.14102 28.4828 5.74105 29.0751C6.34108 29.6673 7.1549 30 8.00347 30H28.8245C29.2415 30.0004 29.6545 29.9197 30.0398 29.7624C30.4252 29.6052 30.7753 29.3744 31.0703 29.0835C31.3652 28.7925 31.5991 28.447 31.7587 28.0668C31.9182 27.6865 32.0002 27.2789 32 26.8674C32 23.3574 32 16.1163 32 12.6032Z" fill="#2B2D33"/>
</svg>
