<svg width="48" height="48" viewBox="0 0 48 48" fill="none" xmlns="http://www.w3.org/2000/svg">
<path d="M16 0H32C36.2397 0.012242 40.3023 1.70188 43.3002 4.69982C46.2981 7.69775 47.9878 11.7603 48 16V32C47.9878 36.2397 46.2981 40.3023 43.3002 43.3002C40.3023 46.2981 36.2397 47.9878 32 48H16C11.7603 47.9878 7.69775 46.2981 4.69982 43.3002C1.70188 40.3023 0.012242 36.2397 0 32L0 16C0.012242 11.7603 1.70188 7.69775 4.69982 4.69982C7.69775 1.70188 11.7603 0.012242 16 0V0Z" fill="#FEE600"/>
<path fill-rule="evenodd" clip-rule="evenodd" d="M33.6001 10.9312H35.2257C35.6426 10.9312 36.0554 11.0133 36.4405 11.1728C36.8256 11.3324 37.1756 11.5662 37.4703 11.861C37.7651 12.1557 37.9989 12.5057 38.1585 12.8908C38.318 13.2759 38.4001 13.6887 38.4001 14.1056V36.5568C38.4001 36.9737 38.318 37.3865 38.1585 37.7716C37.9989 38.1567 37.7651 38.5067 37.4703 38.8014C37.1756 39.0962 36.8256 39.33 36.4405 39.4896C36.0554 39.6491 35.6426 39.7312 35.2257 39.7312H12.7745C11.9326 39.7312 11.1252 39.3968 10.5299 38.8014C9.93454 38.2061 9.6001 37.3987 9.6001 36.5568V14.1056C9.6001 13.2637 9.93454 12.4563 10.5299 11.861C11.1252 11.2656 11.9326 10.9312 12.7745 10.9312H16.0001V7.7312H19.2001V15.7312H16.0001V14.1312H12.7809V18.9312H35.2001V14.1312H33.6001V10.9312ZM12.7841 22.1312L12.8001 36.5568L35.2257 36.5312L35.2081 22.1312H12.7841Z" fill="#2B2D33"/>
<path d="M32.0001 15.7312H28.8001V14.1312H20.8001V10.9312H28.8001V7.7312H32.0001V15.7312Z" fill="#2B2D33"/>
</svg>
